<?xml version="1.0" encoding="UTF-8" standalone="no"?>
<!-- Created with Inkscape (http://www.inkscape.org/) -->

<svg
   width="340.15747"
   height="60.498459"
   viewBox="0 0 340.15746 60.498457"
   version="1.1"
   id="svg1"
   xmlns="http://www.w3.org/2000/svg"
   xmlns:svg="http://www.w3.org/2000/svg">
  <defs
     id="defs1" />
  <g
     id="layer1"
     transform="translate(-4.9212604,-4.750773)">
    <path
       style="font-weight:500;font-size:74.6667px;font-family:'Lyth Mono';-inkscape-font-specification:'Lyth Mono Medium';text-align:center;text-anchor:middle;fill:#e0e0e0;stroke-width:0.895654;stroke-linejoin:round"
       d="M 4.92126,52.564066 V 5.7265548 h 6.310054 V 47.034638 h 19.385525 v 5.529428 z m 42.088714,12.685159 q 0.845677,-2.471979 1.756407,-5.009011 0.910729,-2.471981 1.756406,-4.943959 L 52.214142,50.612503 40.309608,17.435932 h 6.635313 l 8.586878,26.411152 8.456773,-26.411152 h 6.635314 q -4.228387,11.969586 -8.521825,23.939173 -4.228387,11.904534 -8.521825,23.87412 z M 108.80947,52.564066 h -9.237399 q -1.49619,0 -2.9924,-0.260209 -1.49619,-0.260208 -2.862283,-0.910729 Q 92.351294,50.742607 91.245403,49.636722 90.204576,48.530836 89.554052,47.229794 88.903529,45.8637 88.643326,44.367501 88.383115,42.871303 88.383115,41.375105 V 22.96536 h -9.88792 v -5.529428 h 9.88792 V 8.5888468 h 6.310054 V 17.435932 H 108.80947 V 22.96536 H 94.693169 v 18.409745 q 0,1.040833 0.195156,2.146719 0.260211,1.040834 0.910726,1.886511 0.65052,0.845677 1.69136,1.235989 1.04083,0.390314 2.08166,0.390314 h 9.237399 z m 11.18897,0 V 4.7507728 h 6.31005 V 23.225569 q 0.65052,-1.496199 1.69136,-2.732189 1.04083,-1.235989 2.40692,-2.081665 1.43115,-0.84568 2.9924,-1.17094 1.6263,-0.325261 3.25261,-0.325261 1.6263,0 3.18755,0.390314 1.6263,0.32526 2.99239,1.170937 1.43115,0.845677 2.47199,2.146719 1.10588,1.235991 1.69135,2.797241 0.65052,1.496198 0.84568,3.1225 0.26021,1.626303 0.26021,3.252605 v 22.768236 h -6.31006 V 29.79583 q 0,-1.496198 -0.52042,-2.992396 -0.45536,-1.496197 -1.62629,-2.471979 -1.10589,-1.040835 -2.60209,-1.431146 -1.4962,-0.455366 -2.9924,-0.455366 -1.49619,0 -2.9924,0.455366 -1.49619,0.390312 -2.66713,1.431146 -1.10589,0.975782 -1.6263,2.471979 -0.45537,1.496198 -0.45537,2.992396 v 22.768236 z m 77.0217,0 V 5.7265548 h 7.54604 l 8.06646,25.0450572 8.06646,-25.0450572 h 7.54605 V 52.564066 h -6.04985 v -9.367503 q 0,-4.098282 0.0651,-8.196564 0.0651,-4.098283 0.26021,-8.196565 l 0.19515,-4.683751 q 0.0651,-2.016615 0.13011,-3.968178 0.0651,-2.016615 0.1301,-4.033231 l -7.87131,24.394539 h -4.94396 l -7.87135,-24.394539 q 0.0651,2.016616 0.13011,4.033231 0.0651,1.951563 0.13011,3.968178 l 0.19515,4.683751 q 0.19516,4.098282 0.26021,8.196565 0.0651,4.098282 0.0651,8.196564 v 9.367503 z m 54.90397,0.520417 q -1.82146,0 -3.70797,-0.260209 -1.82146,-0.260208 -3.51281,-0.910729 -1.69136,-0.715573 -3.18755,-1.886511 -1.43115,-1.23599 -2.40693,-2.79724 -0.97578,-1.561251 -1.36609,-3.38271 -0.39032,-1.821458 -0.39032,-3.642917 V 29.79583 q 0,-1.821458 0.39032,-3.642917 0.39031,-1.821458 1.36609,-3.382709 0.97578,-1.56125 2.40693,-2.732188 1.49619,-1.23599 3.18755,-1.886511 1.69135,-0.715573 3.51281,-0.975782 1.88651,-0.260209 3.70797,-0.260209 1.82146,0 3.64292,0.260209 1.88651,0.260209 3.57787,0.975782 1.69135,0.650521 3.1225,1.886511 1.49619,1.170938 2.47198,2.732188 0.97578,1.561251 1.36609,3.382709 0.39031,1.821459 0.39031,3.642917 v 10.408337 q 0,1.821459 -0.39031,3.642917 -0.39031,1.821459 -1.36609,3.38271 -0.97579,1.56125 -2.47198,2.79724 -1.43115,1.170938 -3.1225,1.886511 -1.69136,0.650521 -3.57787,0.910729 -1.82146,0.260209 -3.64292,0.260209 z m 0,-5.529429 q 1.56125,0 3.1225,-0.390313 1.56125,-0.390312 2.73219,-1.366093 1.23599,-1.040833 1.82146,-2.537031 0.58547,-1.496199 0.58547,-3.057449 V 29.79583 q 0,-1.561249 -0.58547,-3.057448 -0.58547,-1.496199 -1.82146,-2.47198 -1.17094,-1.040833 -2.73219,-1.431146 -1.56125,-0.390313 -3.1225,-0.390313 -1.56125,0 -3.1225,0.390313 -1.56125,0.390313 -2.79724,1.431146 -1.17094,0.975781 -1.7564,2.47198 -0.58547,1.496199 -0.58547,3.057448 v 10.408337 q 0,1.56125 0.58547,3.057449 0.58546,1.496198 1.7564,2.537031 1.23599,0.975782 2.79724,1.366094 1.56125,0.390313 3.1225,0.390313 z m 25.24023,5.009012 V 17.435932 h 6.31005 v 5.789637 q 0.65051,-1.496199 1.69135,-2.732189 1.04084,-1.235989 2.40693,-2.081665 1.43115,-0.84568 2.9924,-1.17094 1.6263,-0.325261 3.2526,-0.325261 1.6263,0 3.18755,0.390314 1.62631,0.32526 2.9924,1.170937 1.43115,0.845677 2.47198,2.146719 1.10589,1.235991 1.69136,2.797241 0.65052,1.496198 0.84568,3.1225 0.2602,1.626303 0.2602,3.252605 v 22.768236 h -6.31006 V 29.79583 q 0,-1.496198 -0.52041,-2.992396 -0.45537,-1.496197 -1.6263,-2.471979 -1.10589,-1.040835 -2.60209,-1.431146 -1.49619,-0.455366 -2.99239,-0.455366 -1.4962,0 -2.9924,0.455366 -1.4962,0.390312 -2.66714,1.431146 -1.10588,0.975782 -1.6263,2.471979 -0.45536,1.496198 -0.45536,2.992396 v 22.768236 z m 53.34272,0.520417 q -1.82146,0 -3.70797,-0.260209 -1.82146,-0.260208 -3.51281,-0.910729 -1.69136,-0.715573 -3.18755,-1.886511 -1.43115,-1.23599 -2.40693,-2.79724 -0.97578,-1.561251 -1.3661,-3.38271 -0.39031,-1.821458 -0.39031,-3.642917 V 29.79583 q 0,-1.821458 0.39031,-3.642917 0.39032,-1.821458 1.3661,-3.382709 0.97578,-1.56125 2.40693,-2.732188 1.49619,-1.23599 3.18755,-1.886511 1.69135,-0.715573 3.51281,-0.975782 1.88651,-0.260209 3.70797,-0.260209 1.82146,0 3.64291,0.260209 1.88652,0.260209 3.57787,0.975782 1.69136,0.650521 3.1225,1.886511 1.4962,1.170938 2.47198,2.732188 0.97579,1.561251 1.3661,3.382709 0.39031,1.821459 0.39031,3.642917 v 10.408337 q 0,1.821459 -0.39031,3.642917 -0.39031,1.821459 -1.3661,3.38271 -0.97578,1.56125 -2.47198,2.79724 -1.43114,1.170938 -3.1225,1.886511 -1.69135,0.650521 -3.57787,0.910729 -1.82145,0.260209 -3.64291,0.260209 z m 0,-5.529429 q 1.56125,0 3.1225,-0.390313 1.56125,-0.390312 2.73219,-1.366093 1.23599,-1.040833 1.82146,-2.537031 0.58547,-1.496199 0.58547,-3.057449 V 29.79583 q 0,-1.561249 -0.58547,-3.057448 -0.58547,-1.496199 -1.82146,-2.47198 -1.17094,-1.040833 -2.73219,-1.431146 -1.56125,-0.390313 -3.1225,-0.390313 -1.56125,0 -3.1225,0.390313 -1.56125,0.390313 -2.79724,1.431146 -1.17094,0.975781 -1.75641,2.47198 -0.58546,1.496199 -0.58546,3.057448 v 10.408337 q 0,1.56125 0.58546,3.057449 0.58547,1.496198 1.75641,2.537031 1.23599,0.975782 2.79724,1.366094 1.56125,0.390313 3.1225,0.390313 z"
       id="text1"
       aria-label="Lyth Mono" />
  </g>
</svg>
